<svg width="15" height="16" viewBox="0 0 15 16" fill="none" xmlns="http://www.w3.org/2000/svg">
<path d="M2.24568 10.25L5.02094 10.25C5.18592 10.25 5.32753 10.313 5.41934 10.4276C5.51115 10.5422 5.54875 10.7019 5.52538 10.8788L5.22454 13.1588C5.14425 13.7631 5.30145 14.3629 5.65547 14.8046C6.00983 15.2466 6.53697 15.5 7.10238 15.5C8.18444 15.5 9.23735 14.6112 9.49957 13.4767L10.2144 10.387C10.2273 10.3306 10.2398 10.2665 10.2523 10.2061C10.3553 10.2324 10.461 10.25 10.5715 10.25L12.6529 10.25C13.4182 10.25 14.0405 9.57727 14.0405 8.75L14.0405 2C14.0405 1.17273 13.4182 0.500001 12.6529 0.500001L10.5715 0.500001C9.99486 0.500001 9.49991 0.882325 9.29088 1.42432C8.5493 0.878296 7.54178 0.5 6.40857 0.5L3.63331 0.5C1.23681 0.5 0.164241 3.51355 0.164241 6.5L0.16424 8C0.16424 9.24072 1.09791 10.25 2.24568 10.25ZM1.55187 6.5C1.55187 4.9436 1.98686 2 3.63331 2L6.40857 2C8.22983 2 9.16587 3.20483 9.18383 3.5L9.18383 7.25C9.18383 8.01282 9.03917 9.28284 8.86809 10.0233L8.15327 13.113C8.04588 13.577 7.54516 14 7.10238 14C6.9374 14 6.79579 13.937 6.70398 13.8224C6.61217 13.7078 6.57457 13.5481 6.59795 13.3712L6.89878 11.0912C6.97907 10.4869 6.82188 9.88708 6.46786 9.44543C6.11349 9.00342 5.58636 8.75 5.02094 8.75L2.24568 8.75C1.8632 8.75 1.55187 8.41345 1.55187 8L1.55187 6.5Z" fill="#18A0FB"/>
</svg>
