<svg width="15" height="16" viewBox="0 0 15 16" fill="none" xmlns="http://www.w3.org/2000/svg">
<path d="M12.2554 5.75H9.4801C9.31511 5.75 9.1735 5.68701 9.0817 5.57239C8.98989 5.45776 8.95228 5.2981 8.97566 5.12122L9.27649 2.84119C9.35678 2.23694 9.19959 1.63708 8.84557 1.19543C8.49121 0.753418 7.96407 0.5 7.39865 0.5C6.3166 0.5 5.26368 1.38879 5.00147 2.52332L4.28665 5.61304C4.27378 5.66943 4.26124 5.73352 4.24871 5.79394C4.14572 5.76758 4.04002 5.75 3.92958 5.75H1.84814C1.08284 5.75 0.46051 6.42273 0.46051 7.25V14C0.46051 14.8273 1.08284 15.5 1.84814 15.5H3.92958C4.50618 15.5 5.00113 15.1177 5.21016 14.5757C5.95174 15.1217 6.95926 15.5 8.09247 15.5H10.8677C13.2642 15.5 14.3368 12.4864 14.3368 9.5V8C14.3368 6.75928 13.4031 5.75 12.2554 5.75ZM12.9492 9.5C12.9492 11.0564 12.5142 14 10.8677 14H8.09247C6.27121 14 5.33517 12.7952 5.31721 12.5V8.75C5.31721 7.98718 5.46187 6.71716 5.63295 5.97668L6.34777 2.88696C6.45516 2.42297 6.95587 2 7.39865 2C7.56364 2 7.70525 2.06299 7.79706 2.17761C7.88886 2.29224 7.92647 2.4519 7.90309 2.62878L7.60226 4.90881C7.52197 5.51306 7.67916 6.11291 8.03318 6.55456C8.38754 6.99658 8.91468 7.25 9.4801 7.25H12.2554C12.6378 7.25 12.9492 7.58655 12.9492 8V9.5Z" fill="#18A0FB"/>
</svg>
