<svg width="20" height="20" viewBox="0 0 20 20" fill="none" xmlns="http://www.w3.org/2000/svg">
<path d="M3.5 15.1333H9.55583L13.5642 19.0907C13.7165 19.2387 13.91 19.3389 14.1201 19.3788C14.3303 19.4187 14.5477 19.3964 14.745 19.3147C14.9428 19.2347 15.1122 19.0988 15.2317 18.9241C15.3512 18.7495 15.4156 18.5439 15.4167 18.3333V15.1333H16.5C17.362 15.1333 18.1886 14.7962 18.7981 14.1961C19.4076 13.596 19.75 12.782 19.75 11.9333V3.40001C19.75 2.55132 19.4076 1.73739 18.7981 1.13727C18.1886 0.537154 17.362 0.200012 16.5 0.200012H3.5C2.63805 0.200012 1.8114 0.537154 1.2019 1.13727C0.59241 1.73739 0.25 2.55132 0.25 3.40001V11.9333C0.25 12.782 0.59241 13.596 1.2019 14.1961C1.8114 14.7962 2.63805 15.1333 3.5 15.1333ZM2.41667 3.40001C2.41667 3.11711 2.5308 2.8458 2.73397 2.64577C2.93713 2.44573 3.21268 2.33335 3.5 2.33335H16.5C16.7873 2.33335 17.0629 2.44573 17.266 2.64577C17.4692 2.8458 17.5833 3.11711 17.5833 3.40001V11.9333C17.5833 12.2162 17.4692 12.4876 17.266 12.6876C17.0629 12.8876 16.7873 13 16.5 13H14.3333C14.046 13 13.7705 13.1124 13.5673 13.3124C13.3641 13.5125 13.25 13.7838 13.25 14.0667V15.7627L10.7692 13.3093C10.6679 13.2105 10.5479 13.1323 10.4159 13.0792C10.2839 13.0261 10.1426 12.9992 10 13H3.5C3.21268 13 2.93713 12.8876 2.73397 12.6876C2.5308 12.4876 2.41667 12.2162 2.41667 11.9333V3.40001Z" fill="black" fill-opacity="0.18"/>
</svg>
