<svg width="25" height="25" viewBox="0 0 25 25" fill="none" xmlns="http://www.w3.org/2000/svg">
<path d="M4.04171 16.1249L8.87504 16.1249C9.16237 16.1249 9.409 16.2264 9.56889 16.4111C9.72878 16.5957 9.79427 16.853 9.75356 17.138L9.22963 20.8113C9.0898 21.7848 9.36357 22.7513 9.98012 23.4628C10.5973 24.175 11.5153 24.5833 12.5 24.5833C14.3845 24.5833 16.2183 23.1513 16.6749 21.3235L17.9198 16.3456C17.9423 16.2547 17.9641 16.1515 17.9859 16.0541C18.1653 16.0966 18.3494 16.1249 18.5417 16.1249L22.1667 16.1249C23.4995 16.1249 24.5834 15.0411 24.5834 13.7083L24.5834 2.83325C24.5834 1.50043 23.4995 0.416588 22.1667 0.416588L18.5417 0.416587C17.5375 0.416587 16.6755 1.03255 16.3115 1.90576C15.02 1.02606 13.2653 0.416587 11.2917 0.416587L6.45838 0.416586C2.28467 0.416586 0.416708 5.27175 0.416707 10.0833L0.416707 12.4999C0.416707 14.4989 2.04277 16.1249 4.04171 16.1249ZM2.83338 10.0833C2.83338 7.57572 3.59094 2.83325 6.45838 2.83325L11.2917 2.83325C14.4636 2.83325 16.0938 4.77437 16.125 5.24992L16.125 11.2916C16.125 12.5206 15.8731 14.5667 15.5752 15.7597L14.3302 20.7376C14.1432 21.4851 13.2712 22.1666 12.5 22.1666C12.2127 22.1666 11.9661 22.0651 11.8062 21.8804C11.6463 21.6958 11.5808 21.4385 11.6215 21.1535L12.1454 17.4802C12.2853 16.5067 12.0115 15.5402 11.395 14.8287C10.7778 14.1165 9.85976 13.7083 8.87504 13.7083L4.04171 13.7083C3.37559 13.7083 2.83338 13.166 2.83338 12.4999L2.83338 10.0833Z" fill="#414753"/>
</svg>
