<svg width="19" height="25" viewBox="0 0 19 25" fill="none" xmlns="http://www.w3.org/2000/svg">
<path d="M0.75 22.5625C0.75 23.2277 1.29318 23.7708 1.95833 23.7708C2.61514 23.7708 3.16666 23.2359 3.16666 22.6104V1.95833C3.16666 1.29318 2.62349 0.75 1.95833 0.75C1.29318 0.75 0.75 1.29318 0.75 1.95833V22.5625Z" fill="#18A0FB" stroke="#18A0FB" stroke-width="0.5"/>
<path d="M1.58311 15.8966L1.58308 15.8966L1.58876 15.8986C2.71996 16.2921 3.94595 16.4875 5.26464 16.4875C6.47653 16.4875 7.66643 16.3204 8.82924 16.1571C9.20354 16.1046 9.57504 16.0524 9.94357 16.0064L9.95186 16.0053L9.96006 16.0037C11.4443 15.7165 12.8614 15.4812 14.2251 15.4812C15.3045 15.4812 16.2325 15.6219 17.1095 15.945L17.1094 15.9451L17.1168 15.9476C17.4783 16.068 17.9036 16.0107 18.2146 15.7619C18.5089 15.5264 18.6917 15.1691 18.6917 14.8V3.58747C18.6917 3.0522 18.3877 2.62338 17.9066 2.44297L17.9066 2.4429L17.9009 2.44093C16.7697 2.04747 15.5437 1.85205 14.2251 1.85205C12.7817 1.85205 11.3394 2.08794 9.98997 2.30863C9.83787 2.33351 9.68694 2.35819 9.53733 2.38232L9.53731 2.3822L9.52964 2.38369C8.04538 2.67096 6.62829 2.90622 5.26464 2.90622C4.18517 2.90622 3.25719 2.76555 2.38023 2.44247L2.38028 2.44235L2.37286 2.43988C2.01144 2.31941 1.58614 2.37678 1.27513 2.62558C0.98083 2.86103 0.797974 3.21834 0.797974 3.58747V14.7521C0.797974 15.2873 1.10202 15.7161 1.58311 15.8966ZM9.53733 13.5948L9.53731 13.5947L9.52964 13.5962C8.04538 13.8835 6.62829 14.1187 5.26464 14.1187C4.49574 14.1187 3.80886 14.0409 3.16672 13.8867V5.08415C3.84683 5.20008 4.536 5.27497 5.26464 5.27497C6.70803 5.27497 8.15034 5.03908 9.49973 4.81838C9.65183 4.79351 9.80276 4.76883 9.95237 4.74469L9.95239 4.74482L9.96006 4.74333C11.4443 4.45605 12.8614 4.2208 14.2251 4.2208C14.994 4.2208 15.6808 4.29863 16.323 4.45284V13.2554C15.6429 13.1394 14.9537 13.0646 14.2251 13.0646C12.7817 13.0646 11.3394 13.3004 9.98997 13.5211C9.83787 13.546 9.68695 13.5707 9.53733 13.5948Z" fill="#18A0FB" stroke="#18A0FB" stroke-width="0.5"/>
</svg>
