<svg width="16" height="18" viewBox="0 0 16 18" fill="none" xmlns="http://www.w3.org/2000/svg">
<path d="M15.4708 4.99217C15.452 4.94789 15.4245 4.90765 15.3898 4.87373L10.5148 0.107066C10.4445 0.0385218 10.3493 1.96179e-05 10.2501 -1.00269e-06H5.00007C4.80152 -0.0056791 4.60386 0.0283754 4.41925 0.100073C4.23464 0.17177 4.06695 0.279597 3.92649 0.416938C3.78603 0.554279 3.67575 0.718236 3.60242 0.898748C3.5291 1.07926 3.49427 1.27252 3.50007 1.46667V9.16667C3.50009 9.23917 3.52209 9.31005 3.5633 9.37033C3.60451 9.43062 3.66307 9.4776 3.73158 9.50535C3.80009 9.53309 3.87548 9.54035 3.94821 9.52621C4.02094 9.51207 4.08775 9.47716 4.1402 9.4259L5.75007 7.8518L7.35995 9.4259C7.41239 9.47716 7.4792 9.51207 7.55194 9.52621C7.62467 9.54035 7.70006 9.53309 7.76857 9.50535C7.83708 9.4776 7.89564 9.43062 7.93685 9.37033C7.97806 9.31005 8.00006 9.23917 8.00007 9.16667V1.83333C8.00007 1.73609 7.96057 1.64282 7.89024 1.57406C7.81991 1.5053 7.72453 1.46667 7.62507 1.46667C7.52562 1.46667 7.43023 1.5053 7.35991 1.57406C7.28958 1.64282 7.25007 1.73609 7.25007 1.83333V8.28153L6.12507 7.18153V2.56667C6.12507 2.46942 6.08557 2.37616 6.01524 2.30739C5.94491 2.23863 5.84953 2.2 5.75007 2.2C5.65062 2.2 5.55523 2.23863 5.48491 2.30739C5.41458 2.37616 5.37507 2.46942 5.37507 2.56667V7.18153L4.25007 8.28153V1.46667C4.24357 1.36871 4.25851 1.27053 4.2939 1.17868C4.32929 1.08682 4.38432 1.00341 4.4553 0.933998C4.52629 0.86459 4.6116 0.810788 4.70554 0.776184C4.79948 0.741581 4.8999 0.726972 5.00007 0.733332H10.0948L14.2198 4.76667H11.7501C11.4517 4.76667 11.1656 4.65077 10.9546 4.44448C10.7436 4.23819 10.6251 3.9584 10.6251 3.66667V2.56667C10.6251 2.46942 10.5856 2.37616 10.5152 2.30739C10.4449 2.23863 10.3495 2.2 10.2501 2.2C10.1506 2.2 10.0552 2.23863 9.98491 2.30739C9.91458 2.37616 9.87507 2.46942 9.87507 2.56667V3.66667C9.87567 4.15272 10.0734 4.61869 10.4249 4.96238C10.7764 5.30608 11.253 5.49942 11.7501 5.5H14.7501V15.7667C14.7501 16.0584 14.6315 16.3382 14.4206 16.5445C14.2096 16.7508 13.9234 16.8667 13.6251 16.8667H2.37732C2.22733 16.8747 2.07728 16.8518 1.93695 16.7993C1.79662 16.7469 1.66914 16.6662 1.56282 16.5625C1.45649 16.4587 1.37369 16.3342 1.31981 16.1971C1.26592 16.06 1.24217 15.9133 1.25007 15.7667V1.83333C1.25007 1.54159 1.3686 1.2618 1.57958 1.05551C1.79056 0.849225 2.07671 0.733332 2.37507 0.733332C2.47453 0.733332 2.56991 0.694701 2.64024 0.625938C2.71057 0.557175 2.75007 0.463912 2.75007 0.366666C2.75007 0.26942 2.71057 0.176157 2.64024 0.107393C2.56991 0.0386298 2.47453 -1.00269e-06 2.37507 -1.00269e-06C1.87798 0.000581212 1.40141 0.193922 1.04991 0.537613C0.698405 0.881303 0.50067 1.34728 0.500075 1.83333V15.7667C0.490653 16.0099 0.532707 16.2524 0.623601 16.479C0.714495 16.7056 0.85227 16.9114 1.02829 17.0835C1.20432 17.2556 1.4148 17.3903 1.64655 17.4792C1.87829 17.5681 2.12632 17.6092 2.37507 17.6H13.6251C14.1222 17.5994 14.5987 17.4061 14.9502 17.0624C15.3017 16.7187 15.4995 16.2527 15.5001 15.7667V5.13333C15.5 5.08484 15.4901 5.03684 15.4708 4.99217Z" fill="black"/>
</svg>
