<svg width="25" height="25" viewBox="0 0 25 25" fill="none" xmlns="http://www.w3.org/2000/svg">
<path d="M20.9583 8.87508H16.125C15.8376 8.87508 15.591 8.7736 15.4311 8.58893C15.2712 8.40426 15.2057 8.14701 15.2464 7.86204L15.7704 4.18866C15.9102 3.21515 15.6364 2.24872 15.0199 1.53717C14.4027 0.825032 13.4847 0.416748 12.5 0.416748C10.6155 0.416748 8.78174 1.84869 8.32507 3.67653L7.08016 8.65442C7.05774 8.74528 7.03591 8.84853 7.01408 8.94588C6.83472 8.9034 6.65063 8.87508 6.45829 8.87508H2.83329C1.50047 8.87508 0.416626 9.95892 0.416626 11.2917V22.1667C0.416626 23.4996 1.50047 24.5834 2.83329 24.5834H6.45829C7.46248 24.5834 8.32448 23.9674 8.68852 23.0942C9.98004 23.9739 11.7347 24.5834 13.7083 24.5834H18.5416C22.7153 24.5834 24.5833 19.7282 24.5833 14.9167V12.5001C24.5833 10.5011 22.9572 8.87508 20.9583 8.87508ZM22.1666 14.9167C22.1666 17.4243 21.4091 22.1667 18.5416 22.1667H13.7083C10.5364 22.1667 8.90623 20.2256 8.87496 19.7501V13.7084C8.87496 12.4794 9.12689 10.4333 9.42485 9.24029L10.6698 4.26241C10.8568 3.51487 11.7288 2.83341 12.5 2.83341C12.7873 2.83341 13.0339 2.9349 13.1938 3.11957C13.3537 3.30424 13.4192 3.56148 13.3785 3.84646L12.8546 7.51984C12.7147 8.49335 12.9885 9.45978 13.605 10.1713C14.2222 10.8835 15.1402 11.2917 16.125 11.2917H20.9583C21.6244 11.2917 22.1666 11.834 22.1666 12.5001V14.9167Z" fill="#F25F5C"/>
</svg>
