<svg width="54" height="36" viewBox="0 0 54 36" fill="none" xmlns="http://www.w3.org/2000/svg">
<path d="M21.376 36H18.7186C8.38053 36 0 29.0369 0 20.4474V5.98665C0 2.68035 3.22599 0 7.20537 0H16.2157C20.1951 0 23.4211 2.68035 23.4211 5.98665V9.16402C23.4211 12.4703 20.1951 15.1507 16.2157 15.1507H11.7964V19.8081C11.7964 24.3618 14.5558 28.6095 19.1373 31.1086L22.4801 32.932C24.1496 33.8425 23.3734 36 21.376 36V36Z" fill="#E7E7E7"/>
<path d="M51.1008 36H48.4435C38.1054 36 29.7249 29.0369 29.7249 20.4474V5.98665C29.7249 2.68035 32.9508 0 36.9302 0H45.9406C49.9199 0 53.1459 2.68035 53.1459 5.98665V9.16402C53.1459 12.4703 49.9199 15.1507 45.9406 15.1507H41.5213V19.8081C41.5213 24.3618 44.2807 28.6095 48.8621 31.1086L52.205 32.932C53.8744 33.8425 53.0983 36 51.1008 36Z" fill="#E7E7E7"/>
</svg>
