<svg width="19" height="19" viewBox="0 0 19 19" fill="none" xmlns="http://www.w3.org/2000/svg">
<path fill-rule="evenodd" clip-rule="evenodd" d="M4.18823 11.3744C6.04487 13.231 9.05506 13.231 10.9117 11.3744C12.7683 9.51778 12.7683 6.50758 10.9117 4.65095C9.05506 2.79432 6.04487 2.79432 4.18823 4.65095C2.3316 6.50758 2.3316 9.51778 4.18823 11.3744ZM11.9234 14.1684C8.97498 16.2685 4.85613 15.9961 2.21133 13.3513C-0.737122 10.4029 -0.737122 5.62249 2.21133 2.67404C5.15977 -0.274404 9.94015 -0.274404 12.8886 2.67404C15.465 5.25046 15.7901 9.22568 13.8639 12.1551L17.8597 16.151C18.4056 16.6969 18.4056 17.582 17.8597 18.1279C17.3138 18.6738 16.4287 18.6738 15.8828 18.1279L11.9234 14.1684Z" fill="#F25F5C"/>
</svg>
