<svg width="76" height="95" viewBox="0 0 76 95" fill="none" xmlns="http://www.w3.org/2000/svg">
<path d="M40.375 11.875H19V14.25H40.375V11.875Z" fill="#CCCCCC"/>
<path d="M40.375 16.625H19V19H40.375V16.625Z" fill="#CCCCCC"/>
<path d="M34.4375 21.375H19V23.75H34.4375V21.375Z" fill="#CCCCCC"/>
<path d="M11.875 39.6625V30.875H5.9375C3.91875 30.875 2.375 29.3312 2.375 27.3125V8.3125C2.375 6.29375 3.91875 4.75 5.9375 4.75H41.5625C43.5812 4.75 45.125 6.29375 45.125 8.3125V27.3125C45.125 29.3312 43.5812 30.875 41.5625 30.875H20.6625L11.875 39.6625ZM5.9375 7.125C5.225 7.125 4.75 7.6 4.75 8.3125V27.3125C4.75 28.025 5.225 28.5 5.9375 28.5H14.25V33.9625L19.7125 28.5H41.5625C42.275 28.5 42.75 28.025 42.75 27.3125V8.3125C42.75 7.6 42.275 7.125 41.5625 7.125H5.9375Z" fill="#CCCCCC"/>
<path d="M11.875 15.4375C9.85625 15.4375 8.3125 13.8937 8.3125 11.875C8.3125 9.85625 9.85625 8.3125 11.875 8.3125C13.8938 8.3125 15.4375 9.85625 15.4375 11.875C15.4375 13.8937 13.8938 15.4375 11.875 15.4375ZM11.875 10.6875C11.1625 10.6875 10.6875 11.1625 10.6875 11.875C10.6875 12.5875 11.1625 13.0625 11.875 13.0625C12.5875 13.0625 13.0625 12.5875 13.0625 11.875C13.0625 11.1625 12.5875 10.6875 11.875 10.6875Z" fill="#CCCCCC"/>
<path d="M16.625 27.3125H10.6875V24.9375H14.25V21.375C14.25 20.0687 13.1813 19 11.875 19C10.5687 19 9.5 20.0687 9.5 21.375V27.3125H7.125V21.375C7.125 18.7625 9.2625 16.625 11.875 16.625C14.4875 16.625 16.625 18.7625 16.625 21.375V27.3125Z" fill="#CCCCCC"/>
<path d="M64.125 47.975L55.3375 39.1875H34.4375C32.4187 39.1875 30.875 37.6437 30.875 35.625V33.25H33.25V35.625C33.25 36.3375 33.725 36.8125 34.4375 36.8125H56.2875L61.75 42.275V36.8125H70.0625C70.775 36.8125 71.25 36.3375 71.25 35.625V16.625C71.25 15.9125 70.775 15.4375 70.0625 15.4375H47.5V13.0625H70.0625C72.0812 13.0625 73.625 14.6062 73.625 16.625V35.625C73.625 37.6437 72.0812 39.1875 70.0625 39.1875H64.125V47.975Z" fill="#CCCCCC"/>
<path d="M57 20.1875H47.5V22.5625H57V20.1875Z" fill="#CCCCCC"/>
<path d="M57 24.9375H47.5V27.3125H57V24.9375Z" fill="#CCCCCC"/>
<path d="M57 29.6875H49.875V32.0625H57V29.6875Z" fill="#CCCCCC"/>
<path d="M64.125 23.75C62.1062 23.75 60.5625 22.2063 60.5625 20.1875C60.5625 18.1687 62.1062 16.625 64.125 16.625C66.1438 16.625 67.6875 18.1687 67.6875 20.1875C67.6875 22.2063 66.1438 23.75 64.125 23.75ZM64.125 19C63.4125 19 62.9375 19.475 62.9375 20.1875C62.9375 20.9 63.4125 21.375 64.125 21.375C64.8375 21.375 65.3125 20.9 65.3125 20.1875C65.3125 19.475 64.8375 19 64.125 19Z" fill="#CCCCCC"/>
<path d="M68.875 35.625H66.5V29.6875C66.5 28.3813 65.4313 27.3125 64.125 27.3125C62.8187 27.3125 61.75 28.3813 61.75 29.6875V33.25H65.3125V35.625H59.375V29.6875C59.375 27.075 61.5125 24.9375 64.125 24.9375C66.7375 24.9375 68.875 27.075 68.875 29.6875V35.625Z" fill="#CCCCCC"/>
<path d="M24.9375 53.9125V45.125H19C16.9812 45.125 15.4375 43.5812 15.4375 41.5625V38H17.8125V41.5625C17.8125 42.275 18.2875 42.75 19 42.75H27.3125V48.2125L32.775 42.75H54.625V45.125H33.725L24.9375 53.9125Z" fill="#CCCCCC"/>
<path d="M64.7188 70.0625C64.4812 70.0625 64.3625 70.0625 64.125 69.9438L59.375 67.3313L54.625 69.9438C54.15 70.1813 53.675 70.1813 53.3188 69.825C52.9625 69.4688 52.8437 68.9938 52.9625 68.5188L54.5063 63.2937L50.35 59.6125C49.9938 59.2563 49.875 58.7812 49.9937 58.3062C50.1125 57.8312 50.5875 57.5938 51.0625 57.5938H56.2875L58.3062 52.9625C58.5437 52.4875 58.9 52.25 59.375 52.25C59.85 52.25 60.325 52.4875 60.4438 52.9625L62.4625 57.5938H67.6875C68.1625 57.5938 68.6375 57.95 68.7563 58.3062C68.875 58.7812 68.7562 59.2563 68.4 59.6125L64.2437 63.2937L65.7875 68.5188C65.9063 68.9938 65.7875 69.4688 65.4312 69.825C65.1937 69.9438 64.9562 70.0625 64.7188 70.0625ZM59.375 64.7188C59.6125 64.7188 59.7312 64.7187 59.9688 64.8375L62.7 66.3813L61.75 63.2937C61.6313 62.8188 61.75 62.3438 62.1062 62.1062L64.4812 60.0875H61.75C61.275 60.0875 60.8 59.85 60.6812 59.375L59.375 56.4063L58.0688 59.2563C57.8313 59.7313 57.475 59.9688 57 59.9688H54.2688L56.6438 61.9875C57 62.3438 57.1188 62.8188 57 63.175L56.05 66.2625L58.7812 64.7188C59.0188 64.7188 59.1375 64.7188 59.375 64.7188Z" fill="#CCCCCC"/>
<path d="M21.9688 70.0625C21.7312 70.0625 21.6125 70.0625 21.375 69.9438L16.625 67.3313L11.875 69.9438C11.4 70.1813 10.925 70.1813 10.5687 69.825C10.2125 69.4688 10.0938 68.9938 10.2125 68.5188L11.7562 63.2937L7.6 59.6125C7.125 59.375 7.00625 58.7812 7.24375 58.3062C7.3625 57.8312 7.8375 57.5938 8.3125 57.5938H13.5375L15.5563 52.9625C15.7938 52.4875 16.15 52.25 16.625 52.25C17.1 52.25 17.575 52.4875 17.6937 52.9625L19.7125 57.5938H24.9375C25.4125 57.5938 25.8875 57.95 26.0063 58.3062C26.125 58.7812 26.0063 59.2563 25.65 59.6125L21.4938 63.2937L23.0375 68.5188C23.1562 68.9938 23.0375 69.4688 22.6813 69.825C22.4438 69.9438 22.2063 70.0625 21.9688 70.0625ZM16.625 64.7188C16.8625 64.7188 16.9812 64.7187 17.2188 64.8375L19.95 66.3813L19 63.2937C18.8813 62.8188 19 62.3438 19.3562 62.1062L21.7312 60.0875H19C18.525 60.0875 18.05 59.85 17.9313 59.375L16.625 56.4063L15.3187 59.2563C15.0812 59.7313 14.725 59.9688 14.25 59.9688H11.5187L13.8937 61.9875C14.25 62.3438 14.3688 62.8188 14.25 63.175L13.3 66.2625L16.0312 64.7188C16.2688 64.7188 16.3875 64.7188 16.625 64.7188Z" fill="#CCCCCC"/>
<path d="M43.3437 70.0625C43.1062 70.0625 42.9875 70.0625 42.75 69.9438L38 67.3313L33.25 69.9438C32.775 70.1813 32.3 70.1813 31.9437 69.825C31.5875 69.4688 31.4687 68.9938 31.5875 68.5188L33.1312 63.2937L28.975 59.6125C28.6187 59.2563 28.5 58.7812 28.6188 58.3062C28.7375 57.8312 29.2125 57.5938 29.6875 57.5938H34.9125L36.9312 52.9625C37.1687 52.4875 37.525 52.25 38 52.25C38.475 52.25 38.95 52.4875 39.0688 52.9625L41.0875 57.5938H46.3125C46.7875 57.5938 47.2625 57.95 47.3813 58.3062C47.5 58.7812 47.3812 59.2563 47.025 59.6125L42.8687 63.2937L44.4125 68.5188C44.5312 68.9938 44.4125 69.4688 44.0562 69.825C43.8187 69.9438 43.5812 70.0625 43.3437 70.0625ZM38 64.7188C38.2375 64.7188 38.3562 64.7187 38.5937 64.8375L41.325 66.3813L40.375 63.2937C40.2562 62.8188 40.375 62.3438 40.7312 62.1062L43.1062 60.0875H40.375C39.9 60.0875 39.425 59.85 39.3062 59.375L38 56.4063L36.6937 59.2563C36.4562 59.7313 36.1 59.9688 35.625 59.9688H32.8938L35.2687 61.9875C35.625 62.3438 35.7437 62.8188 35.625 63.175L34.675 66.2625L37.4062 64.7188C37.6437 64.7188 37.7625 64.7188 38 64.7188Z" fill="#CCCCCC"/>
</svg>
