<svg width="63" height="63" viewBox="0 0 63 63" fill="none" xmlns="http://www.w3.org/2000/svg">
<path d="M62.727 10.8465L53.277 0.3465C53.1788 0.237728 53.0589 0.150706 52.9251 0.0910302C52.7913 0.0313545 52.6465 0.00034632 52.5 0H15.75C14.3576 0 13.0222 0.553123 12.0377 1.53769C11.0531 2.52225 10.5 3.85761 10.5 5.25V39.9C10.5 39.6215 10.3894 39.3544 10.1925 39.1575C9.99554 38.9606 9.72847 38.85 9.44999 38.85H1.05C0.771522 38.85 0.504451 38.9606 0.307538 39.1575C0.110625 39.3544 0 39.6215 0 39.9V54.6C0 54.8784 0.110625 55.1455 0.307538 55.3424C0.504451 55.5393 0.771522 55.65 1.05 55.65H9.44999C9.72847 55.65 9.99554 55.5393 10.1925 55.3424C10.3894 55.1455 10.5 54.8784 10.5 54.6V57.75C10.5 59.1423 11.0531 60.4777 12.0377 61.4623C13.0222 62.4468 14.3576 63 15.75 63H57.75C59.1423 63 60.4777 62.4468 61.4623 61.4623C62.4468 60.4777 63 59.1423 63 57.75V11.55C63.0023 11.2892 62.9046 11.0374 62.727 10.8465ZM8.39999 53.55H2.1V40.95H8.39999V53.55ZM53.55 3.7905L59.5875 10.5H54.6C54.3215 10.5 54.0544 10.3894 53.8575 10.1925C53.6606 9.99554 53.55 9.72847 53.55 9.44999V3.7905ZM10.5 52.5V42H12.6C12.7628 41.9989 12.9232 41.9604 13.0688 41.8876C13.2144 41.8148 13.3414 41.7095 13.44 41.58L16.59 37.38C16.7274 37.1988 16.8012 36.9774 16.8 36.75V33.6C16.8 33.3215 16.9106 33.0544 17.1075 32.8575C17.3044 32.6606 17.5715 32.55 17.85 32.55C18.1285 32.55 18.3955 32.6606 18.5925 32.8575C18.7894 33.0544 18.9 33.3215 18.9 33.6V38.85C18.9 39.1285 19.0106 39.3955 19.2075 39.5924C19.4044 39.7894 19.6715 39.9 19.95 39.9H28.35C28.6285 39.9 28.8955 40.0106 29.0924 40.2075C29.2894 40.4044 29.4 40.6715 29.4 40.95C29.4 41.2285 29.2894 41.4955 29.0924 41.6924C28.8955 41.8894 28.6285 42 28.35 42H25.2C24.9215 42 24.6544 42.1106 24.4575 42.3075C24.2606 42.5044 24.15 42.7715 24.15 43.05C24.15 43.3284 24.2606 43.5955 24.4575 43.7924C24.6544 43.9893 24.9215 44.1 25.2 44.1H28.35C28.6285 44.1 28.8955 44.2106 29.0924 44.4075C29.2894 44.6044 29.4 44.8715 29.4 45.15C29.4 45.4284 29.2894 45.6955 29.0924 45.8924C28.8955 46.0893 28.6285 46.2 28.35 46.2H25.2C24.9215 46.2 24.6544 46.3106 24.4575 46.5075C24.2606 46.7044 24.15 46.9715 24.15 47.25C24.15 47.5285 24.2606 47.7955 24.4575 47.9924C24.6544 48.1893 24.9215 48.3 25.2 48.3H27.3C27.5785 48.3 27.8455 48.4106 28.0424 48.6075C28.2394 48.8044 28.35 49.0715 28.35 49.35C28.35 49.6284 28.2394 49.8955 28.0424 50.0924C27.8455 50.2893 27.5785 50.4 27.3 50.4H25.2C24.9215 50.4 24.6544 50.5106 24.4575 50.7075C24.2606 50.9044 24.15 51.1715 24.15 51.45C24.15 51.7284 24.2606 51.9955 24.4575 52.1924C24.6544 52.3893 24.9215 52.5 25.2 52.5H26.25C26.5285 52.5 26.7955 52.6106 26.9924 52.8075C27.1894 53.0044 27.3 53.2715 27.3 53.55C27.3 53.8284 27.1894 54.0955 26.9924 54.2924C26.7955 54.4893 26.5285 54.6 26.25 54.6H17.052L13.0725 52.6155C12.9262 52.5405 12.7644 52.501 12.6 52.5H10.5ZM60.9 57.75C60.8975 58.5846 60.5648 59.3844 59.9746 59.9746C59.3844 60.5648 58.5846 60.8975 57.75 60.9H15.75C14.9153 60.8975 14.1156 60.5648 13.5254 59.9746C12.9352 59.3844 12.6025 58.5846 12.6 57.75V54.726L16.3275 56.5845C16.4738 56.6594 16.6356 56.699 16.8 56.7H26.25C27.0846 56.6975 27.8844 56.3648 28.4746 55.7746C29.0648 55.1844 29.3975 54.3846 29.4 53.55C29.4015 53.0084 29.2603 52.476 28.9905 52.0065C29.4375 51.7221 29.8056 51.3296 30.0608 50.8653C30.3159 50.401 30.4497 49.8798 30.45 49.35C30.4515 48.8084 30.3103 48.276 30.0405 47.8065C30.4875 47.5221 30.8556 47.1296 31.1108 46.6653C31.3659 46.201 31.4997 45.6798 31.5 45.15C31.5017 44.3737 31.2134 43.6247 30.6915 43.05C31.2134 42.4753 31.5017 41.7263 31.5 40.95C31.4975 40.1153 31.1648 39.3155 30.5746 38.7253C29.9844 38.1351 29.1846 37.8025 28.35 37.8H21V33.6C21 32.7645 20.6681 31.9633 20.0774 31.3726C19.4866 30.7819 18.6854 30.45 17.85 30.45C17.0146 30.45 16.2133 30.7819 15.6226 31.3726C15.0319 31.9633 14.7 32.7645 14.7 33.6V36.4035L12.6 39.1965V5.25C12.6025 4.41533 12.9352 3.61557 13.5254 3.02537C14.1156 2.43517 14.9153 2.10249 15.75 2.1H51.45V9.44999C51.4525 10.2847 51.7851 11.0844 52.3753 11.6746C52.9655 12.2648 53.7653 12.5975 54.6 12.6H60.9V57.75Z" fill="#CCCCCC"/>
<path d="M36.7499 29.0934L37.5132 29.6467C37.87 29.9122 38.3028 30.0556 38.7475 30.0556C39.1922 30.0556 39.625 29.9122 39.9818 29.6467C40.3435 29.3889 40.6125 29.0214 40.749 28.5987C40.8856 28.1761 40.8824 27.7207 40.7399 27.3L40.449 26.4033L41.2113 25.8478C41.5693 25.5872 41.8358 25.2202 41.9727 24.7991C42.1095 24.378 42.1098 23.9244 41.9734 23.5031C41.837 23.0819 41.571 22.7145 41.2133 22.4535C40.8556 22.1925 40.4246 22.0513 39.9818 22.05H39.0368L38.7449 21.1533C38.6068 20.7331 38.3396 20.3673 37.9813 20.108C37.6231 19.8486 37.1921 19.709 36.7499 19.709C36.3076 19.709 35.8767 19.8486 35.5184 20.108C35.1602 20.3673 34.893 20.7331 34.7549 21.1533L34.4609 22.05H33.5159C33.0727 22.0504 32.6411 22.191 32.2827 22.4517C31.9244 22.7123 31.6576 23.0797 31.5207 23.5011C31.3838 23.9226 31.3837 24.3766 31.5205 24.7981C31.6573 25.2196 31.9238 25.587 32.2821 25.8478L33.0444 26.4033L32.7599 27.3C32.6234 27.7215 32.6238 28.1755 32.761 28.5969C32.8982 29.0182 33.1651 29.3854 33.5236 29.6458C33.8822 29.9063 34.3139 30.0466 34.757 30.0467C35.2002 30.0469 35.632 29.9069 35.9907 29.6467L36.7499 29.0934ZM34.8987 25.1527L33.518 24.15H35.2242C35.446 24.1499 35.662 24.0797 35.8414 23.9494C36.0207 23.8191 36.1543 23.6353 36.2228 23.4244L36.7478 21.7896L36.753 21.8022L37.278 23.4244C37.3465 23.6353 37.4801 23.8191 37.6594 23.9494C37.8388 24.0797 38.0548 24.1499 38.2766 24.15H39.9828L38.6021 25.1527C38.423 25.283 38.2896 25.4666 38.2212 25.6773C38.1527 25.8879 38.1526 26.1148 38.2209 26.3256L38.7459 27.9489L37.3662 26.9461C37.1868 26.8157 36.9707 26.7454 36.7488 26.7454C36.527 26.7454 36.3109 26.8157 36.1314 26.9461L34.7517 27.9478L35.2767 26.3256C35.3454 26.1152 35.3458 25.8885 35.2779 25.6778C35.21 25.4672 35.0773 25.2834 34.8987 25.1527Z" fill="#CCCCCC"/>
<path d="M44.8843 25.8478L45.6466 26.4033L45.36 27.3C45.2235 27.7215 45.2239 28.1755 45.3611 28.5969C45.4982 29.0182 45.7652 29.3854 46.1237 29.6458C46.4823 29.9063 46.914 30.0466 47.3571 30.0467C47.8003 30.0469 48.2321 29.9069 48.5908 29.6467L49.35 29.0934L50.1133 29.6467C50.4701 29.9122 50.9029 30.0556 51.3476 30.0556C51.7923 30.0556 52.2251 29.9122 52.5819 29.6467C52.9436 29.3889 53.2126 29.0214 53.3491 28.5987C53.4857 28.1761 53.4825 27.7207 53.34 27.3L53.0491 26.4033L53.8114 25.8478C54.1694 25.5872 54.4359 25.2202 54.5727 24.7991C54.7096 24.378 54.7099 23.9244 54.5735 23.5031C54.4371 23.0819 54.1711 22.7145 53.8134 22.4535C53.4557 22.1925 53.0247 22.0513 52.5819 22.05H51.6369L51.345 21.1533C51.2069 20.7331 50.9397 20.3673 50.5814 20.108C50.2232 19.8486 49.7922 19.709 49.35 19.709C48.9077 19.709 48.4767 19.8486 48.1185 20.108C47.7603 20.3673 47.4931 20.7331 47.355 21.1533L47.061 22.05H46.116C45.6728 22.0504 45.2412 22.191 44.8828 22.4517C44.5245 22.7123 44.2577 23.0797 44.1208 23.5011C43.9839 23.9226 43.9838 24.3766 44.1206 24.7981C44.2573 25.2196 44.5239 25.587 44.8822 25.8478H44.8843ZM47.8243 24.15C48.0461 24.1499 48.2621 24.0797 48.4415 23.9494C48.6208 23.8191 48.7544 23.6353 48.8229 23.4244L49.3479 21.7896L49.3531 21.8022L49.8781 23.4244C49.9466 23.6353 50.0802 23.8191 50.2595 23.9494C50.4389 24.0797 50.6549 24.1499 50.8767 24.15H52.5829L51.2022 25.1527C51.0231 25.283 50.8897 25.4666 50.8213 25.6773C50.7528 25.8879 50.7527 26.1148 50.821 26.3256L51.346 27.9489L49.9663 26.9461C49.7869 26.8157 49.5708 26.7454 49.3489 26.7454C49.1271 26.7454 48.911 26.8157 48.7315 26.9461L47.3518 27.9478L47.8768 26.3256C47.9451 26.1148 47.945 25.8879 47.8766 25.6773C47.8081 25.4666 47.6748 25.283 47.4957 25.1527L46.1181 24.15H47.8243Z" fill="#CCCCCC"/>
<path d="M27.3819 22.05H26.4369L26.145 21.1533C26.0069 20.7331 25.7397 20.3673 25.3815 20.108C25.0232 19.8486 24.5923 19.709 24.15 19.709C23.7078 19.709 23.2768 19.8486 22.9186 20.108C22.5603 20.3673 22.2931 20.7331 22.155 21.1533L21.861 22.05H20.916C20.4729 22.0504 20.0412 22.191 19.6829 22.4517C19.3245 22.7123 19.0578 23.0797 18.9209 23.5011C18.7839 23.9226 18.7839 24.3766 18.9206 24.7981C19.0574 25.2196 19.324 25.587 19.6823 25.8478L20.4446 26.4033L20.16 27.3C20.0235 27.7215 20.0239 28.1755 20.1611 28.5969C20.2983 29.0182 20.5653 29.3854 20.9238 29.6458C21.2823 29.9063 21.7141 30.0466 22.1572 30.0467C22.6003 30.0469 23.0322 29.9069 23.3909 29.6467L24.15 29.0934L24.9134 29.6467C25.2701 29.9122 25.703 30.0556 26.1476 30.0556C26.5923 30.0556 27.0252 29.9122 27.3819 29.6467C27.7436 29.3889 28.0126 29.0214 28.1492 28.5987C28.2857 28.1761 28.2825 27.7207 28.14 27.3L27.8492 26.4033L28.6115 25.8478C28.9695 25.5872 29.2359 25.2202 29.3728 24.7991C29.5097 24.378 29.5099 23.9244 29.3735 23.5031C29.2372 23.0819 28.9711 22.7145 28.6134 22.4535C28.2557 22.1925 27.8247 22.0513 27.3819 22.05ZM26.0012 25.1527C25.8221 25.283 25.6887 25.4666 25.6203 25.6773C25.5518 25.8879 25.5517 26.1148 25.62 26.3256L26.145 27.9489L24.7653 26.9461C24.5859 26.8157 24.3698 26.7454 24.1479 26.7454C23.9261 26.7454 23.71 26.8157 23.5305 26.9461L22.1508 27.9478L22.6758 26.3256C22.7441 26.1148 22.744 25.8879 22.6756 25.6773C22.6071 25.4666 22.4738 25.283 22.2947 25.1527L20.9181 24.15H22.6244C22.8461 24.1499 23.0621 24.0797 23.2415 23.9494C23.4209 23.8191 23.5544 23.6353 23.6229 23.4244L24.1479 21.7896V21.8022L24.6729 23.4244C24.7414 23.6353 24.8749 23.8191 25.0543 23.9494C25.2337 24.0797 25.4497 24.1499 25.6715 24.15H27.3777L26.0012 25.1527Z" fill="#CCCCCC"/>
<path d="M19.9501 6.30005H17.8501V8.40005H19.9501V6.30005Z" fill="#CCCCCC"/>
<path d="M40.95 6.30005H22.05V8.40005H40.95V6.30005Z" fill="#CCCCCC"/>
<path d="M40.9501 10.5H17.8501V12.6H40.9501V10.5Z" fill="#CCCCCC"/>
<path d="M56.6999 54.6H54.5999V56.7H56.6999V54.6Z" fill="#CCCCCC"/>
<path d="M52.4999 54.6H35.7V56.7H52.4999V54.6Z" fill="#CCCCCC"/>
<path d="M56.6999 50.4H35.7V52.5H56.6999V50.4Z" fill="#CCCCCC"/>
<path d="M56.6999 46.2H35.7V48.2999H56.6999V46.2Z" fill="#CCCCCC"/>
<path d="M56.6999 42H35.7V44.1H56.6999V42Z" fill="#CCCCCC"/>
<path d="M37.7999 37.7999H35.7V39.8999H37.7999V37.7999Z" fill="#CCCCCC"/>
<path d="M56.6999 37.7999H39.8999V39.8999H56.6999V37.7999Z" fill="#CCCCCC"/>
</svg>
